<svg width="47" height="47" viewBox="0 0 47 47" fill="none" xmlns="http://www.w3.org/2000/svg">
<g clip-path="url(#clip0)">
<path d="M47 26.5537C47 38.893 36.3961 43.0629 26.1104 45.657C22.3308 46.6102 18.3771 47.2482 14.5773 46.3794C7.58781 44.7813 3.30228 40.2529 1.31782 34.6269C-0.493382 29.492 0.747217 23.8778 2.62047 18.7653C6.06778 9.35675 11.1115 0 21.1758 0C25.7312 0 30.2436 3.03658 33.7181 6.68939C35.4465 8.50635 37.0723 10.4228 38.79 12.2499C43.1115 16.8467 46.3978 21.4764 47 26.5537Z" fill="#F5F5F5"/>
<path d="M32 23.5C32 28.1944 28.1944 32 23.5 32C18.8056 32 15 28.1944 15 23.5C15 18.8056 18.8056 15 23.5 15C28.1944 15 32 18.8056 32 23.5Z" fill="#F9DA6C"/>
<path d="M25 20C25 21.6569 23.2091 23 21 23C18.7909 23 17 21.6569 17 20C17 18.3431 18.7909 17 21 17C23.2091 17 25 18.3431 25 20Z" fill="#FFECAA"/>
<path d="M15.712 12.4637C13.8978 13.7242 11.6607 13.6431 10.7152 12.2825C9.7698 10.9218 10.4741 8.79693 12.2883 7.53636C14.1024 6.27579 16.3395 6.35692 17.285 7.71755C18.2304 9.07819 17.5261 11.2031 15.712 12.4637Z" fill="white"/>
<path d="M11.9769 17.9717C11.332 18.3829 10.5829 18.3615 10.3039 17.9239C10.0249 17.4863 10.3215 16.7982 10.9665 16.3869C11.6115 15.9757 12.3606 15.9971 12.6396 16.4347C12.9186 16.8723 12.6219 17.5604 11.9769 17.9717Z" fill="white"/>
</g>
<defs>
<clipPath id="clip0">
<rect width="47" height="47" fill="white"/>
</clipPath>
</defs>
</svg>
